<?xml version="1.0" encoding="utf-8"?>
<!-- Generator: Adobe Illustrator 23.0.1, SVG Export Plug-In . SVG Version: 6.00 Build 0)  -->
<svg version="1.1"
	 id="Layer_1" xmlns:cc="http://creativecommons.org/ns#" xmlns:dc="http://purl.org/dc/elements/1.1/" xmlns:inkscape="http://www.inkscape.org/namespaces/inkscape" xmlns:rdf="http://www.w3.org/1999/02/22-rdf-syntax-ns#" xmlns:sodipodi="http://sodipodi.sourceforge.net/DTD/sodipodi-0.dtd" xmlns:svg="http://www.w3.org/2000/svg"
	 xmlns="http://www.w3.org/2000/svg" xmlns:xlink="http://www.w3.org/1999/xlink" x="0px" y="0px" viewBox="0 0 100 50"
	 style="enable-background:new 0 0 100 50;" xml:space="preserve">
<style type="text/css">
	.st0{fill:#FFFFFF;}
</style>
<g transform="translate(0,-952.36218)">
	<path class="st0" d="M31.9,954.4c-0.2,0-0.5,0.1-0.6,0.3l-24,22c-0.4,0.4-0.4,1-0.1,1.4c0,0,0,0,0.1,0.1l24,22
		c0.4,0.4,1,0.4,1.4-0.1c0.4-0.4,0.4-1,0-1.4l-22.1-20.2H92c0.5,0,1-0.5,1-1s-0.5-1-1-1H10.6l22.1-20.3c0.4-0.4,0.5-1,0.1-1.4
		C32.6,954.5,32.3,954.3,31.9,954.4z"/>
</g>
</svg>
